<svg width="881" height="262" viewBox="0 0 881 262" fill="none" xmlns="http://www.w3.org/2000/svg">
<g clip-path="url(#clip0_41_37)">
<mask id="mask0_41_37" style="mask-type:luminance" maskUnits="userSpaceOnUse" x="-358" y="-349" width="1588" height="1123">
<path d="M-358 -349H1229.4V773.52H-358V-349Z" fill="white"/>
</mask>
<g mask="url(#mask0_41_37)">
<path d="M40.6954 7.05992H63.5314C82.7528 7.05992 91.1954 11.1532 95.7861 21.2532C97.7114 25.3466 100.393 31.5599 100.393 50.5879V107.104C100.393 116.021 99.8434 123.984 97.7114 130.951C93.6021 144.377 84.4794 153.287 63.5314 153.287H40.6954V7.05992ZM0.266113 160.539H52.9381C61.1248 160.539 69.2968 160.065 77.2808 159.325C108.766 156.415 146.562 133.32 146.562 78.9892C146.562 36.6172 113.557 -0.18275 71.6981 -0.18275H0.286115L0.266113 160.539Z" fill="#A8C60E"/>
<path d="M206.211 103.763V81.1176C206.211 74.6456 210.52 70.1123 220.896 70.1123C232.424 70.1123 237.714 73.9296 237.714 80.1483V103.763H206.211ZM258.88 110.011C262.752 110.011 270.206 111.235 270.206 105.454C270.206 80.391 247.312 63.8336 223.52 63.8336C196.112 63.8336 167.219 81.8616 167.219 114.604C167.219 147.32 194.187 164.162 223.982 164.162C246.378 164.162 264.446 154.036 270.687 131.667L265.138 129.703C259.612 148.508 244.687 157.911 225.706 157.911C213.167 157.911 206.211 153.542 206.211 141.063V110.011H258.88Z" fill="#A8C60E"/>
<path d="M329.852 86.3983C340.229 68.6463 352.948 63.833 369.324 63.833C383.974 63.833 396.472 68.1477 396.472 86.893V153.789V160.538H364.273V153.789V92.3877C364.273 77.081 360.617 73.7103 353.88 73.7103C338.494 73.7103 329.852 93.3623 329.852 106.636V153.789V160.538H297.614V153.789V71.9557H282.212V65.3023H297.614C308.464 65.3023 319.021 65.2103 329.852 65.2103V86.3983Z" fill="#A8C60E"/>
<path d="M541.766 65.302V153.789V160.539H508.572V153.789H508.588V71.9553H491.995V65.302H541.766ZM541.526 26.062C541.526 35.214 533.632 43.31 524.468 43.31C515.347 43.31 507.159 35.214 507.159 26.062C507.159 16.9473 515.58 9.00731 524.468 9.00731C533.414 9.00731 541.526 16.9473 541.526 26.062Z" fill="#A8C60E"/>
<path d="M609.675 65.211V131.419C609.675 144.667 608.48 154.255 619.259 154.255C632.729 154.255 642.825 135.544 642.825 128.044V71.9563H626.253V65.3016H642.825C653.893 65.3016 664.927 65.211 676.057 65.211V153.79H676.036V160.539H676.057C664.927 160.539 653.893 160.474 642.825 160.474V142.224H642.385C636.604 157.599 621.677 164.162 605.593 164.162C575.987 164.162 576.427 150.656 576.427 126.856V71.9563H559.831V65.3016L609.675 65.211Z" fill="#A8C60E"/>
<path d="M742.899 87.3957C750.625 74.3983 762.885 63.833 778.768 63.833C793.177 63.833 805.704 71.0597 808.38 86.3983C817.245 73.453 831.216 63.833 847.576 63.833C859.893 63.833 875.24 69.1143 875.24 83.305V153.789V160.538H842.983V153.789V86.893C842.983 80.3903 842.27 73.7103 833.586 73.7103C819.651 73.7103 809.112 91.9837 809.112 104.516V153.789V160.538H776.823V153.789H776.803V94.1037C776.803 78.2703 775.167 73.7103 766.268 73.7103C758.557 73.7103 742.899 84.0543 742.899 105.453V153.789H742.932V160.538H710.677V153.789H710.644V71.9557H695.271V65.3023H710.644C721.508 65.3023 732.104 65.2103 742.899 65.2103V87.3957Z" fill="#A8C60E"/>
<path d="M464.807 155.036V73.0777H483.127V66.3044H464.807V35.7844L464.791 35.7217H431.589V66.3044H416.941V73.0777H431.589V158.388C431.589 159.094 431.589 159.731 431.665 160.38H464.791C464.662 158.599 464.807 156.664 464.807 155.036Z" fill="#A8C60E"/>
</g>
<path d="M-0.130681 228V171.273H33.8835V177.366H6.73864V196.534H31.3352V202.628H6.73864V228H-0.130681ZM58.9233 228.886C55.0824 228.886 51.7124 227.972 48.8132 226.144C45.9325 224.316 43.6797 221.759 42.0547 218.472C40.4482 215.185 39.6449 211.344 39.6449 206.949C39.6449 202.517 40.4482 198.648 42.0547 195.343C43.6797 192.038 45.9325 189.471 48.8132 187.643C51.7124 185.815 55.0824 184.901 58.9233 184.901C62.7642 184.901 66.125 185.815 69.0057 187.643C71.9048 189.471 74.1577 192.038 75.7642 195.343C77.3892 198.648 78.2017 202.517 78.2017 206.949C78.2017 211.344 77.3892 215.185 75.7642 218.472C74.1577 221.759 71.9048 224.316 69.0057 226.144C66.125 227.972 62.7642 228.886 58.9233 228.886ZM58.9233 223.014C61.8409 223.014 64.2415 222.266 66.125 220.771C68.0085 219.275 69.4027 217.308 70.3075 214.871C71.2124 212.433 71.6648 209.793 71.6648 206.949C71.6648 204.105 71.2124 201.455 70.3075 198.999C69.4027 196.543 68.0085 194.558 66.125 193.044C64.2415 191.53 61.8409 190.773 58.9233 190.773C56.0057 190.773 53.6051 191.53 51.7216 193.044C49.8381 194.558 48.4439 196.543 47.5391 198.999C46.6342 201.455 46.1818 204.105 46.1818 206.949C46.1818 209.793 46.6342 212.433 47.5391 214.871C48.4439 217.308 49.8381 219.275 51.7216 220.771C53.6051 222.266 56.0057 223.014 58.9233 223.014ZM88.1802 228V185.455H94.4956V191.881H94.9387C95.7143 189.776 97.1177 188.067 99.149 186.756C101.18 185.445 103.47 184.79 106.018 184.79C106.498 184.79 107.099 184.799 107.819 184.817C108.539 184.836 109.084 184.864 109.453 184.901V191.548C109.231 191.493 108.724 191.41 107.93 191.299C107.154 191.17 106.332 191.105 105.464 191.105C103.396 191.105 101.55 191.539 99.9245 192.407C98.318 193.256 97.0439 194.438 96.1021 195.952C95.1788 197.448 94.7172 199.156 94.7172 201.077V228H88.1802ZM157.531 228H140.026V171.273H158.307C163.81 171.273 168.518 172.408 172.433 174.68C176.348 176.933 179.349 180.173 181.435 184.402C183.522 188.612 184.565 193.653 184.565 199.526C184.565 205.435 183.513 210.522 181.408 214.788C179.303 219.035 176.237 222.303 172.212 224.593C168.186 226.864 163.293 228 157.531 228ZM146.895 221.906H157.088C161.778 221.906 165.665 221.001 168.749 219.192C171.833 217.382 174.132 214.806 175.646 211.464C177.161 208.121 177.918 204.142 177.918 199.526C177.918 194.946 177.17 191.004 175.674 187.698C174.178 184.374 171.944 181.826 168.971 180.053C165.998 178.262 162.295 177.366 157.864 177.366H146.895V221.906ZM213.04 228.886C208.94 228.886 205.404 227.982 202.431 226.172C199.477 224.344 197.196 221.795 195.589 218.527C194.001 215.24 193.207 211.418 193.207 207.06C193.207 202.702 194.001 198.861 195.589 195.537C197.196 192.195 199.43 189.591 202.293 187.726C205.173 185.842 208.534 184.901 212.375 184.901C214.591 184.901 216.779 185.27 218.94 186.009C221.1 186.747 223.067 187.947 224.839 189.609C226.612 191.253 228.025 193.432 229.077 196.146C230.13 198.861 230.656 202.203 230.656 206.173V208.943H197.861V203.293H224.009C224.009 200.892 223.528 198.75 222.568 196.866C221.626 194.983 220.278 193.496 218.524 192.407C216.788 191.317 214.739 190.773 212.375 190.773C209.771 190.773 207.518 191.419 205.616 192.712C203.733 193.986 202.283 195.648 201.268 197.697C200.252 199.747 199.744 201.945 199.744 204.29V208.057C199.744 211.27 200.298 213.994 201.406 216.228C202.533 218.444 204.093 220.134 206.087 221.297C208.082 222.442 210.399 223.014 213.04 223.014C214.757 223.014 216.308 222.774 217.693 222.294C219.097 221.795 220.306 221.057 221.322 220.078C222.337 219.081 223.122 217.844 223.676 216.366L229.991 218.139C229.327 220.281 228.21 222.165 226.64 223.79C225.07 225.396 223.131 226.652 220.823 227.557C218.515 228.443 215.92 228.886 213.04 228.886ZM247.137 202.406V228H240.6V185.455H246.915V192.102H247.469C248.467 189.942 249.981 188.206 252.012 186.895C254.043 185.565 256.665 184.901 259.879 184.901C262.759 184.901 265.28 185.491 267.44 186.673C269.601 187.837 271.281 189.609 272.482 191.991C273.682 194.355 274.282 197.347 274.282 200.966V228H267.745V201.409C267.745 198.067 266.877 195.463 265.141 193.598C263.406 191.714 261.023 190.773 257.995 190.773C255.908 190.773 254.043 191.225 252.4 192.13C250.775 193.035 249.491 194.355 248.55 196.091C247.608 197.827 247.137 199.932 247.137 202.406ZM304.73 185.455V190.994H282.682V185.455H304.73ZM289.108 175.261H295.645V215.812C295.645 217.659 295.912 219.044 296.448 219.967C297.002 220.872 297.704 221.482 298.553 221.795C299.421 222.091 300.335 222.239 301.295 222.239C302.015 222.239 302.606 222.202 303.068 222.128C303.53 222.036 303.899 221.962 304.176 221.906L305.506 227.778C305.062 227.945 304.444 228.111 303.65 228.277C302.856 228.462 301.849 228.554 300.631 228.554C298.784 228.554 296.974 228.157 295.202 227.363C293.447 226.569 291.988 225.359 290.825 223.734C289.68 222.109 289.108 220.06 289.108 217.585V175.261ZM314.563 228V185.455H321.1V228H314.563ZM317.887 178.364C316.613 178.364 315.514 177.93 314.591 177.062C313.686 176.194 313.233 175.151 313.233 173.932C313.233 172.713 313.686 171.67 314.591 170.802C315.514 169.934 316.613 169.5 317.887 169.5C319.161 169.5 320.251 169.934 321.155 170.802C322.079 171.67 322.54 172.713 322.54 173.932C322.54 175.151 322.079 176.194 321.155 177.062C320.251 177.93 319.161 178.364 317.887 178.364ZM363.209 194.983L357.337 196.645C356.968 195.666 356.423 194.715 355.703 193.792C355.001 192.85 354.041 192.075 352.822 191.465C351.603 190.856 350.043 190.551 348.141 190.551C345.537 190.551 343.368 191.151 341.632 192.352C339.914 193.533 339.056 195.038 339.056 196.866C339.056 198.491 339.647 199.775 340.828 200.717C342.01 201.658 343.857 202.443 346.368 203.071L352.684 204.622C356.488 205.545 359.322 206.958 361.187 208.86C363.052 210.744 363.985 213.172 363.985 216.145C363.985 218.582 363.283 220.761 361.88 222.682C360.495 224.602 358.556 226.116 356.063 227.224C353.57 228.332 350.671 228.886 347.365 228.886C343.026 228.886 339.434 227.945 336.591 226.061C333.747 224.178 331.946 221.426 331.189 217.807L337.394 216.256C337.985 218.545 339.102 220.263 340.745 221.408C342.407 222.553 344.577 223.125 347.255 223.125C350.301 223.125 352.721 222.479 354.512 221.186C356.321 219.875 357.226 218.305 357.226 216.477C357.226 215 356.709 213.763 355.675 212.766C354.641 211.75 353.053 210.993 350.911 210.494L343.82 208.832C339.924 207.909 337.061 206.478 335.233 204.539C333.424 202.582 332.519 200.135 332.519 197.199C332.519 194.798 333.193 192.675 334.541 190.828C335.907 188.982 337.763 187.532 340.108 186.479C342.472 185.427 345.15 184.901 348.141 184.901C352.351 184.901 355.657 185.824 358.057 187.67C360.476 189.517 362.194 191.955 363.209 194.983ZM392.328 185.455V190.994H370.279V185.455H392.328ZM376.705 175.261H383.242V215.812C383.242 217.659 383.51 219.044 384.046 219.967C384.6 220.872 385.301 221.482 386.151 221.795C387.019 222.091 387.933 222.239 388.893 222.239C389.613 222.239 390.204 222.202 390.666 222.128C391.127 222.036 391.497 221.962 391.774 221.906L393.103 227.778C392.66 227.945 392.041 228.111 391.247 228.277C390.453 228.462 389.447 228.554 388.228 228.554C386.382 228.554 384.572 228.157 382.799 227.363C381.045 226.569 379.586 225.359 378.423 223.734C377.278 222.109 376.705 220.06 376.705 217.585V175.261ZM431.535 194.983L425.663 196.645C425.294 195.666 424.749 194.715 424.029 193.792C423.327 192.85 422.367 192.075 421.148 191.465C419.93 190.856 418.369 190.551 416.467 190.551C413.863 190.551 411.694 191.151 409.958 192.352C408.241 193.533 407.382 195.038 407.382 196.866C407.382 198.491 407.973 199.775 409.155 200.717C410.336 201.658 412.183 202.443 414.694 203.071L421.01 204.622C424.814 205.545 427.648 206.958 429.513 208.86C431.378 210.744 432.311 213.172 432.311 216.145C432.311 218.582 431.609 220.761 430.206 222.682C428.821 224.602 426.882 226.116 424.389 227.224C421.896 228.332 418.997 228.886 415.692 228.886C411.352 228.886 407.76 227.945 404.917 226.061C402.073 224.178 400.273 221.426 399.515 217.807L405.72 216.256C406.311 218.545 407.428 220.263 409.072 221.408C410.733 222.553 412.903 223.125 415.581 223.125C418.628 223.125 421.047 222.479 422.838 221.186C424.648 219.875 425.552 218.305 425.552 216.477C425.552 215 425.035 213.763 424.001 212.766C422.967 211.75 421.379 210.993 419.237 210.494L412.146 208.832C408.25 207.909 405.388 206.478 403.559 204.539C401.75 202.582 400.845 200.135 400.845 197.199C400.845 194.798 401.519 192.675 402.867 190.828C404.233 188.982 406.089 187.532 408.434 186.479C410.798 185.427 413.476 184.901 416.467 184.901C420.677 184.901 423.983 185.824 426.383 187.67C428.802 189.517 430.52 191.955 431.535 194.983ZM464.975 228V171.273H484.807C488.759 171.273 492.018 171.956 494.585 173.322C497.152 174.67 499.063 176.489 500.319 178.779C501.574 181.05 502.202 183.571 502.202 186.341C502.202 188.778 501.768 190.791 500.9 192.379C500.051 193.967 498.924 195.223 497.521 196.146C496.136 197.07 494.631 197.753 493.006 198.196V198.75C494.742 198.861 496.487 199.47 498.241 200.578C499.995 201.686 501.463 203.274 502.645 205.342C503.827 207.411 504.418 209.94 504.418 212.932C504.418 215.776 503.772 218.333 502.479 220.604C501.186 222.876 499.146 224.676 496.358 226.006C493.569 227.335 489.941 228 485.472 228H464.975ZM471.844 221.906H485.472C489.959 221.906 493.145 221.038 495.028 219.303C496.93 217.548 497.881 215.425 497.881 212.932C497.881 211.011 497.392 209.239 496.413 207.614C495.434 205.97 494.04 204.659 492.23 203.68C490.421 202.683 488.279 202.185 485.804 202.185H471.844V221.906ZM471.844 196.202H484.586C486.654 196.202 488.519 195.795 490.181 194.983C491.861 194.17 493.191 193.026 494.169 191.548C495.167 190.071 495.665 188.335 495.665 186.341C495.665 183.848 494.797 181.734 493.061 179.998C491.326 178.244 488.574 177.366 484.807 177.366H471.844V196.202ZM519.029 243.955C517.921 243.955 516.933 243.862 516.065 243.678C515.197 243.511 514.597 243.345 514.265 243.179L515.927 237.418C517.515 237.824 518.918 237.972 520.137 237.861C521.356 237.75 522.436 237.205 523.378 236.227C524.338 235.266 525.215 233.706 526.009 231.545L527.228 228.222L511.495 185.455H518.586L530.33 219.358H530.773L542.518 185.455H549.609L531.549 234.205C530.737 236.402 529.73 238.221 528.53 239.661C527.33 241.12 525.935 242.2 524.347 242.902C522.778 243.604 521.005 243.955 519.029 243.955ZM598.566 228H581.061V171.273H599.342C604.845 171.273 609.554 172.408 613.468 174.68C617.383 176.933 620.384 180.173 622.471 184.402C624.557 188.612 625.6 193.653 625.6 199.526C625.6 205.435 624.548 210.522 622.443 214.788C620.338 219.035 617.272 222.303 613.247 224.593C609.221 226.864 604.328 228 598.566 228ZM587.93 221.906H598.123C602.814 221.906 606.701 221.001 609.784 219.192C612.868 217.382 615.167 214.806 616.681 211.464C618.196 208.121 618.953 204.142 618.953 199.526C618.953 194.946 618.205 191.004 616.709 187.698C615.213 184.374 612.979 181.826 610.006 180.053C607.033 178.262 603.331 177.366 598.899 177.366H587.93V221.906ZM654.075 228.886C649.975 228.886 646.439 227.982 643.466 226.172C640.512 224.344 638.231 221.795 636.625 218.527C635.037 215.24 634.243 211.418 634.243 207.06C634.243 202.702 635.037 198.861 636.625 195.537C638.231 192.195 640.466 189.591 643.328 187.726C646.208 185.842 649.569 184.901 653.41 184.901C655.626 184.901 657.814 185.27 659.975 186.009C662.135 186.747 664.102 187.947 665.875 189.609C667.647 191.253 669.06 193.432 670.113 196.146C671.165 198.861 671.691 202.203 671.691 206.173V208.943H638.896V203.293H665.044C665.044 200.892 664.564 198.75 663.603 196.866C662.662 194.983 661.314 193.496 659.559 192.407C657.824 191.317 655.774 190.773 653.41 190.773C650.806 190.773 648.554 191.419 646.652 192.712C644.768 193.986 643.319 195.648 642.303 197.697C641.287 199.747 640.779 201.945 640.779 204.29V208.057C640.779 211.27 641.333 213.994 642.441 216.228C643.568 218.444 645.128 220.134 647.123 221.297C649.117 222.442 651.434 223.014 654.075 223.014C655.792 223.014 657.343 222.774 658.728 222.294C660.132 221.795 661.341 221.057 662.357 220.078C663.373 219.081 664.157 217.844 664.711 216.366L671.027 218.139C670.362 220.281 669.245 222.165 667.675 223.79C666.105 225.396 664.167 226.652 661.858 227.557C659.55 228.443 656.956 228.886 654.075 228.886ZM688.172 202.406V228H681.635V185.455H687.951V192.102H688.505C689.502 189.942 691.016 188.206 693.047 186.895C695.078 185.565 697.701 184.901 700.914 184.901C703.794 184.901 706.315 185.491 708.475 186.673C710.636 187.837 712.316 189.609 713.517 191.991C714.717 194.355 715.317 197.347 715.317 200.966V228H708.78V201.409C708.78 198.067 707.912 195.463 706.176 193.598C704.441 191.714 702.059 190.773 699.03 190.773C696.944 190.773 695.078 191.225 693.435 192.13C691.81 193.035 690.527 194.355 689.585 196.091C688.643 197.827 688.172 199.932 688.172 202.406ZM745.765 185.455V190.994H723.717V185.455H745.765ZM730.143 175.261H736.68V215.812C736.68 217.659 736.948 219.044 737.483 219.967C738.037 220.872 738.739 221.482 739.588 221.795C740.456 222.091 741.37 222.239 742.33 222.239C743.051 222.239 743.642 222.202 744.103 222.128C744.565 222.036 744.934 221.962 745.211 221.906L746.541 227.778C746.097 227.945 745.479 228.111 744.685 228.277C743.891 228.462 742.884 228.554 741.666 228.554C739.819 228.554 738.009 228.157 736.237 227.363C734.482 226.569 733.024 225.359 731.86 223.734C730.715 222.109 730.143 220.06 730.143 217.585V175.261ZM755.598 228V185.455H762.135V228H755.598ZM758.922 178.364C757.648 178.364 756.549 177.93 755.626 177.062C754.721 176.194 754.269 175.151 754.269 173.932C754.269 172.713 754.721 171.67 755.626 170.802C756.549 169.934 757.648 169.5 758.922 169.5C760.196 169.5 761.286 169.934 762.191 170.802C763.114 171.67 763.575 172.713 763.575 173.932C763.575 175.151 763.114 176.194 762.191 177.062C761.286 177.93 760.196 178.364 758.922 178.364ZM804.244 194.983L798.372 196.645C798.003 195.666 797.458 194.715 796.738 193.792C796.036 192.85 795.076 192.075 793.857 191.465C792.638 190.856 791.078 190.551 789.176 190.551C786.572 190.551 784.403 191.151 782.667 192.352C780.95 193.533 780.091 195.038 780.091 196.866C780.091 198.491 780.682 199.775 781.864 200.717C783.045 201.658 784.892 202.443 787.403 203.071L793.719 204.622C797.523 205.545 800.357 206.958 802.222 208.86C804.087 210.744 805.02 213.172 805.02 216.145C805.02 218.582 804.318 220.761 802.915 222.682C801.53 224.602 799.591 226.116 797.098 227.224C794.605 228.332 791.706 228.886 788.401 228.886C784.061 228.886 780.469 227.945 777.626 226.061C774.782 224.178 772.982 221.426 772.224 217.807L778.429 216.256C779.02 218.545 780.137 220.263 781.781 221.408C783.442 222.553 785.612 223.125 788.29 223.125C791.337 223.125 793.756 222.479 795.547 221.186C797.357 219.875 798.261 218.305 798.261 216.477C798.261 215 797.744 213.763 796.71 212.766C795.676 211.75 794.088 210.993 791.946 210.494L784.855 208.832C780.959 207.909 778.097 206.478 776.268 204.539C774.459 202.582 773.554 200.135 773.554 197.199C773.554 194.798 774.228 192.675 775.576 190.828C776.942 188.982 778.798 187.532 781.143 186.479C783.507 185.427 786.185 184.901 789.176 184.901C793.386 184.901 796.692 185.824 799.092 187.67C801.511 189.517 803.229 191.955 804.244 194.983ZM833.363 185.455V190.994H811.314V185.455H833.363ZM817.741 175.261H824.278V215.812C824.278 217.659 824.545 219.044 825.081 219.967C825.635 220.872 826.336 221.482 827.186 221.795C828.054 222.091 828.968 222.239 829.928 222.239C830.648 222.239 831.239 222.202 831.701 222.128C832.162 222.036 832.532 221.962 832.809 221.906L834.138 227.778C833.695 227.945 833.077 228.111 832.282 228.277C831.488 228.462 830.482 228.554 829.263 228.554C827.417 228.554 825.607 228.157 823.834 227.363C822.08 226.569 820.621 225.359 819.458 223.734C818.313 222.109 817.741 220.06 817.741 217.585V175.261ZM872.57 194.983L866.698 196.645C866.329 195.666 865.784 194.715 865.064 193.792C864.362 192.85 863.402 192.075 862.183 191.465C860.965 190.856 859.404 190.551 857.502 190.551C854.899 190.551 852.729 191.151 850.993 192.352C849.276 193.533 848.417 195.038 848.417 196.866C848.417 198.491 849.008 199.775 850.19 200.717C851.372 201.658 853.218 202.443 855.73 203.071L862.045 204.622C865.849 205.545 868.683 206.958 870.548 208.86C872.414 210.744 873.346 213.172 873.346 216.145C873.346 218.582 872.644 220.761 871.241 222.682C869.856 224.602 867.917 226.116 865.424 227.224C862.931 228.332 860.032 228.886 856.727 228.886C852.387 228.886 848.796 227.945 845.952 226.061C843.108 224.178 841.308 221.426 840.551 217.807L846.755 216.256C847.346 218.545 848.463 220.263 850.107 221.408C851.769 222.553 853.938 223.125 856.616 223.125C859.663 223.125 862.082 222.479 863.873 221.186C865.683 219.875 866.588 218.305 866.588 216.477C866.588 215 866.07 213.763 865.036 212.766C864.002 211.75 862.414 210.993 860.272 210.494L853.181 208.832C849.285 207.909 846.423 206.478 844.595 204.539C842.785 202.582 841.88 200.135 841.88 197.199C841.88 194.798 842.554 192.675 843.902 190.828C845.269 188.982 847.124 187.532 849.47 186.479C851.833 185.427 854.511 184.901 857.502 184.901C861.713 184.901 865.018 185.824 867.419 187.67C869.838 189.517 871.555 191.955 872.57 194.983Z" fill="#A8C60E"/>
</g>
<defs>
<clipPath id="clip0_41_37">
<rect width="881" height="262" fill="white"/>
</clipPath>
</defs>
</svg>
