<svg width="40" height="41" viewBox="0 0 40 41" fill="none" xmlns="http://www.w3.org/2000/svg">
<path d="M26.25 20.3301C26.25 21.9877 25.5915 23.5774 24.4194 24.7495C23.2473 25.9216 21.6576 26.5801 20 26.5801C18.3424 26.5801 16.7527 25.9216 15.5806 24.7495C14.4085 23.5774 13.75 21.9877 13.75 20.3301C13.75 19.9738 13.7875 19.6259 13.8521 19.2884H11.6667V27.6155C11.6667 28.1947 12.1354 28.6634 12.7146 28.6634H27.2875C27.5651 28.6629 27.8311 28.5522 28.0271 28.3557C28.2232 28.1593 28.3333 27.8931 28.3333 27.6155V19.2884H26.1479C26.2125 19.6259 26.25 19.9738 26.25 20.3301ZM20 24.4967C20.5473 24.4966 21.0892 24.3887 21.5948 24.1791C22.1004 23.9695 22.5598 23.6624 22.9467 23.2753C23.3336 22.8882 23.6405 22.4287 23.8498 21.923C24.0591 21.4173 24.1668 20.8753 24.1667 20.328C24.1665 19.7807 24.0586 19.2388 23.849 18.7332C23.6394 18.2276 23.3323 17.7682 22.9452 17.3813C22.5581 16.9944 22.0986 16.6875 21.5929 16.4782C21.0872 16.2689 20.5452 16.1612 19.9979 16.1613C18.8926 16.1616 17.8326 16.601 17.0512 17.3828C16.2698 18.1646 15.831 19.2247 15.8312 20.3301C15.8315 21.4354 16.2709 22.4954 17.0527 23.2768C17.8345 24.0582 18.8947 24.497 20 24.4967ZM25 15.9551H27.4979C27.6639 15.9551 27.8231 15.8893 27.9406 15.7721C28.0581 15.655 28.1244 15.496 28.125 15.3301V12.8322C28.125 12.6658 28.0589 12.5063 27.9413 12.3887C27.8237 12.2711 27.6642 12.2051 27.4979 12.2051H25C24.8337 12.2051 24.6742 12.2711 24.5566 12.3887C24.439 12.5063 24.3729 12.6658 24.3729 12.8322V15.3301C24.375 15.6738 24.6562 15.9551 25 15.9551ZM20 0.330078C14.6957 0.330078 9.60859 2.43721 5.85786 6.18794C2.10714 9.93867 0 15.0257 0 20.3301C0 25.6344 2.10714 30.7215 5.85786 34.4722C9.60859 38.2229 14.6957 40.3301 20 40.3301C22.6264 40.3301 25.2272 39.8128 27.6537 38.8077C30.0802 37.8026 32.285 36.3294 34.1421 34.4722C35.9993 32.615 37.4725 30.4103 38.4776 27.9837C39.4827 25.5572 40 22.9565 40 20.3301C40 17.7036 39.4827 15.1029 38.4776 12.6764C37.4725 10.2499 35.9993 8.04511 34.1421 6.18794C32.285 4.33077 30.0802 2.85758 27.6537 1.85249C25.2272 0.847393 22.6264 0.330078 20 0.330078ZM30.4167 28.4322C30.4167 29.7051 29.375 30.7467 28.1021 30.7467H11.8979C10.625 30.7467 9.58333 29.7051 9.58333 28.4322V12.228C9.58333 10.9551 10.625 9.91341 11.8979 9.91341H28.1021C29.375 9.91341 30.4167 10.9551 30.4167 12.228V28.4322Z" fill="#26292F"/>
</svg>
