<svg width="40" height="41" viewBox="0 0 40 41" fill="none" xmlns="http://www.w3.org/2000/svg">
<path d="M20 0.330078C8.96 0.330078 0 9.29008 0 20.3301C0 31.3701 8.96 40.3301 20 40.3301C31.04 40.3301 40 31.3701 40 20.3301C40 9.29008 31.04 0.330078 20 0.330078ZM29.28 13.9301C28.98 17.0901 27.68 24.7701 27.02 28.3101C26.74 29.8101 26.18 30.3101 25.66 30.3701C24.5 30.4701 23.62 29.6101 22.5 28.8701C20.74 27.7101 19.74 26.9901 18.04 25.8701C16.06 24.5701 17.34 23.8501 18.48 22.6901C18.78 22.3901 23.9 17.7301 24 17.3101C24.0139 17.2465 24.012 17.1804 23.9946 17.1177C23.9772 17.0549 23.9447 16.9974 23.9 16.9501C23.78 16.8501 23.62 16.8901 23.48 16.9101C23.3 16.9501 20.5 18.8101 15.04 22.4901C14.24 23.0301 13.52 23.3101 12.88 23.2901C12.16 23.2701 10.8 22.8901 9.78 22.5501C8.52 22.1501 7.54 21.9301 7.62 21.2301C7.66 20.8701 8.16 20.5101 9.1 20.1301C14.94 17.5901 18.82 15.9101 20.76 15.1101C26.32 12.7901 27.46 12.3901 28.22 12.3901C28.38 12.3901 28.76 12.4301 29 12.6301C29.2 12.7901 29.26 13.0101 29.28 13.1701C29.26 13.2901 29.3 13.6501 29.28 13.9301Z" fill="#26292F"/>
</svg>
