<svg width="40" height="41" viewBox="0 0 40 41" fill="none" xmlns="http://www.w3.org/2000/svg">
<path d="M20 0.330078C8.95417 0.330078 0 9.28425 0 20.3301C0 31.3759 8.95417 40.3301 20 40.3301C31.0458 40.3301 40 31.3759 40 20.3301C40 9.28425 31.0458 0.330078 20 0.330078ZM27.6917 22.8947C27.6917 22.8947 29.4604 24.6405 29.8958 25.4509C29.9083 25.4676 29.9146 25.4842 29.9187 25.4926C30.0958 25.7905 30.1375 26.0217 30.05 26.1947C29.9042 26.4822 29.4042 26.6238 29.2333 26.6363H26.1083C25.8917 26.6363 25.4375 26.5801 24.8875 26.2009C24.4646 25.9051 24.0479 25.4197 23.6417 24.9467C23.0354 24.2426 22.5104 23.6342 21.9813 23.6342C21.914 23.6341 21.8472 23.6447 21.7833 23.6655C21.3833 23.7947 20.8708 24.3655 20.8708 25.8863C20.8708 26.3613 20.4958 26.6342 20.2313 26.6342H18.8C18.3125 26.6342 15.7729 26.4634 13.5229 24.0905C10.7687 21.1842 8.28958 15.3551 8.26875 15.3009C8.1125 14.9238 8.43542 14.7217 8.7875 14.7217H11.9437C12.3646 14.7217 12.5021 14.978 12.5979 15.2051C12.7104 15.4697 13.1229 16.5217 13.8 17.7051C14.8979 19.6342 15.5708 20.4176 16.1104 20.4176C16.2116 20.4164 16.311 20.3906 16.4 20.3426C17.1042 19.9509 16.9729 17.4405 16.9417 16.9197C16.9417 16.8217 16.9396 15.7967 16.5792 15.3051C16.3208 14.9488 15.8812 14.8134 15.6146 14.7634C15.7225 14.6145 15.8647 14.4937 16.0292 14.4113C16.5125 14.1697 17.3833 14.1342 18.2479 14.1342H18.7292C19.6667 14.1467 19.9083 14.2072 20.2479 14.2926C20.9354 14.4572 20.95 14.9009 20.8896 16.4197C20.8708 16.8509 20.8521 17.3384 20.8521 17.9134C20.8521 18.0384 20.8458 18.1717 20.8458 18.3134C20.825 19.0863 20.8 19.9634 21.3458 20.3238C21.417 20.3685 21.4993 20.3923 21.5833 20.3926C21.7729 20.3926 22.3438 20.3926 23.8896 17.7405C24.3663 16.8869 24.7806 15.9998 25.1292 15.0863C25.1604 15.0322 25.2521 14.8655 25.3604 14.8009C25.4404 14.7602 25.529 14.7394 25.6187 14.7405H29.3292C29.7333 14.7405 30.0104 14.8009 30.0625 14.9572C30.1542 15.2051 30.0458 15.9613 28.3521 18.2551L27.5958 19.253C26.0604 21.2655 26.0604 21.3676 27.6917 22.8947Z" fill="#26292F"/>
</svg>
